<?xml version="1.0" encoding="utf-8"?>
<!-- Generator: Adobe Illustrator 26.0.3, SVG Export Plug-In . SVG Version: 6.00 Build 0)  -->
<svg version="1.1" id="Capa_1" xmlns="http://www.w3.org/2000/svg" xmlns:xlink="http://www.w3.org/1999/xlink" x="0px" y="0px"
	 viewBox="0 0 602 208" style="enable-background:new 0 0 602 208;" xml:space="preserve">
<style type="text/css">
	.st0{fill:#FCFCFC;}
</style>
<g>
	<g>
		<path class="st0" d="M254.35,193.73c-1.59,0.23-2.94-0.08-4.05-0.95c-1.11-0.86-2.01-1.93-2.71-3.2c-0.7-1.27-1.22-2.52-1.57-3.75
			c-0.35-1.23-0.56-2.1-0.64-2.6c-0.4-2.77-0.65-5.19-0.74-7.27c-0.09-2.08-0.16-4.19-0.21-6.32l-0.07-0.5
			c-0.07-0.5-0.25-0.97-0.52-1.4c-0.28-0.43-0.54-0.93-0.79-1.49c-0.02-0.17-0.06-0.29-0.12-0.37c-0.06-0.08-0.09-0.16-0.1-0.24
			c-0.08-0.59,0.12-1.21,0.62-1.89c0.44-0.49,1.08-0.95,1.92-1.37c0.84-0.42,1.59-0.68,2.26-0.78c0.33-0.05,0.68-0.01,1.04,0.11
			c0.19,0.14,0.3,0.3,0.32,0.47c0.09,0.59-0.02,1.33-0.32,2.23c-0.26,1.15-0.42,1.84-0.47,2.06c-0.05,0.22,0.01,0.92,0.18,2.09
			c0.1,0.67,0.64,1.49,1.64,2.46c1,0.97,2.12,1.9,3.36,2.78c1.24,0.89,2.36,1.65,3.35,2.27c0.99,0.63,1.57,0.93,1.74,0.9
			c0.31-1.41,0.83-3.39,1.57-5.94c0.74-2.55,1.54-5.29,2.39-8.24c0.85-2.95,1.72-5.79,2.61-8.53c0.89-2.74,1.62-5.05,2.2-6.93
			c0.28-0.98,0.46-1.82,0.53-2.52c0.07-0.69,0.08-1.21,0.03-1.54c-0.05-0.33-0.13-0.6-0.24-0.8c-0.11-0.2-0.22-0.33-0.32-0.4
			c0.02-1.03,0.61-2.72,1.77-5.07c1.15-2.35,2.61-4.83,4.37-7.44c1.76-2.61,3.61-4.87,5.56-6.78c1.95-1.91,3.76-2.99,5.43-3.23
			c0.5-0.07,1.32-0.04,2.45,0.09c1.13,0.14,2.25,0.46,3.35,0.99c1.1,0.53,1.82,1.36,2.16,2.51l0.07,0.5
			c0.02,0.17-0.01,0.26-0.09,0.27c-0.08,0.01-0.26-0.05-0.54-0.18c-0.28-0.13-0.58-0.17-0.92-0.12c-1.93,0.28-3.89,1.53-5.87,3.74
			c-1.99,2.21-3.95,5.07-5.88,8.56c-1.93,3.49-3.75,7.28-5.47,11.39c-1.71,4.1-3.3,8.18-4.76,12.25c-1.46,4.06-2.74,7.78-3.83,11.15
			c-1.09,3.37-1.96,6.08-2.6,8.14c2.97,1.62,6.03,2.65,9.18,3.09c3.15,0.44,6.27,0.44,9.37-0.02c5.03-0.73,9.87-2.42,14.54-5.07
			c4.66-2.65,8.93-5.81,12.8-9.5c3.87-3.69,7.01-7.54,9.42-11.58c2.91-4.7,4.94-9.4,6.1-14.11c1.15-4.7,1.43-9.11,0.84-13.21
			c-0.68-4.69-2.47-8.73-5.36-12.12c-2.89-3.39-6.9-5.84-12.05-7.36c-5.14-1.52-11.44-1.74-18.9-0.65
			c-5.36,0.78-10.81,2.15-16.34,4.11c-5.53,1.96-10.79,4.33-15.78,7.11c-4.99,2.78-9.4,5.84-13.23,9.18
			c-3.84,3.34-6.76,6.78-8.77,10.32c-2.01,3.55-2.76,7.03-2.26,10.47c0.31,2.1,1.2,3.57,2.7,4.42c1.49,0.85,3.11,1.41,4.86,1.67
			c1.75,0.26,3.12,0.57,4.12,0.94c0.71,0.15,1.08,0.4,1.13,0.73c0.07,0.5-0.35,0.82-1.27,0.96c-1.01,0.15-2.38,0.09-4.13-0.17
			c-1.75-0.26-3.54-0.77-5.36-1.53c-1.82-0.76-3.36-1.8-4.62-3.11c-1.26-1.31-1.91-2.99-1.95-5.04c-0.02-0.17-0.11-0.45-0.25-0.86
			c-0.15-0.41-0.24-0.78-0.29-1.11c-0.59-4.02,0.06-7.84,1.93-11.45c1.87-3.61,4.65-6.97,8.35-10.07c3.7-3.11,8-5.87,12.91-8.3
			c4.91-2.43,10.15-4.47,15.73-6.14c5.58-1.67,11.13-2.9,16.66-3.71c4.94-0.72,10.05-1.06,15.32-1.01
			c5.27,0.05,10.24,0.82,14.91,2.32c4.67,1.5,8.6,3.99,11.8,7.46c3.2,3.47,5.25,8.27,6.14,14.38c0.98,6.71,0.39,13.12-1.75,19.25
			c-2.15,6.13-5.42,11.68-9.84,16.64c-4.41,4.96-9.53,9.07-15.34,12.31c-5.82,3.24-11.91,5.33-18.28,6.25
			c-4.27,0.62-8.48,0.7-12.61,0.23c-4.13-0.47-7.83-1.62-11.09-3.46c-0.13,0.28-0.42,1.07-0.87,2.37c-0.45,1.31-1.02,2.71-1.7,4.23
			c-0.68,1.51-1.43,2.86-2.23,4.05C256.13,192.93,255.27,193.59,254.35,193.73z M253.29,190.03c0.67-0.1,1.28-0.89,1.83-2.39
			c0.55-1.49,1.01-3.05,1.37-4.69c0.36-1.63,0.6-2.63,0.72-2.99c-1.03-0.62-2.44-1.65-4.24-3.1c-1.8-1.45-3.31-2.6-4.54-3.45
			c0.12,0.84,0.42,2.72,0.89,5.65c0.47,2.93,1.17,5.82,2.1,8.68C252,189.36,252.62,190.13,253.29,190.03z"/>
		<path class="st0" d="M348.99,173.79c-3.77,0.55-7.17,0.14-10.19-1.21c-3.02-1.36-4.79-3.84-5.32-7.44
			c-0.28-1.93-0.04-4.36,0.74-7.29c0.56-2.05,1.78-4.5,3.68-7.34c1.9-2.84,4.18-5.68,6.85-8.51c2.67-2.83,5.44-5.24,8.32-7.24
			c2.87-2,5.57-3.18,8.08-3.55c0.92-0.13,1.78-0.13,2.57,0.01c1.5,0.3,2.6,0.95,3.3,1.96c0.7,1.01,1.14,2.1,1.31,3.27
			c0.16,1.09,0.14,2.16-0.05,3.22c-0.19,1.05-0.48,1.99-0.87,2.82c-1.18,2.48-3.05,4.81-5.6,6.98c-2.55,2.17-5.2,3.97-7.94,5.39
			c-2.74,1.43-5.03,2.36-6.85,2.79l-0.25,0.04c-1.09,0.16-1.68-0.1-1.78-0.77c-0.06-0.42,0.24-0.68,0.91-0.77
			c1.99-0.46,4.38-1.77,7.19-3.93c2.81-2.16,5.25-4.34,7.33-6.52c0.88-0.98,1.91-2.33,3.07-4.04c1.16-1.71,1.64-3.28,1.43-4.7
			c-0.22-1.51-1.04-2.16-2.47-1.95c-0.75,0.11-1.5,0.39-2.25,0.84c-0.75,0.45-1.36,0.8-1.84,1.04c-2.26,1.53-4.68,3.74-7.25,6.64
			c-2.57,2.9-4.83,6.05-6.77,9.46c-1.94,3.41-3.15,6.73-3.62,9.96c-0.15,0.71-0.23,1.38-0.22,2.02c0.01,0.64,0.05,1.26,0.14,1.84
			c0.29,2.01,1.15,3.34,2.57,3.99c1.42,0.65,3.05,0.84,4.9,0.57c2.77-0.4,5.53-1.42,8.28-3.07c2.76-1.64,5.38-3.63,7.86-5.96
			c2.48-2.33,4.72-4.77,6.7-7.33c1.98-2.55,3.62-5,4.9-7.32c0.2-0.37,0.47-0.6,0.8-0.69c0.33-0.09,0.55-0.06,0.66,0.1
			c0.35,0.04,0.55,0.24,0.6,0.62c0.05,0.38,0.02,0.75-0.1,1.11c-1.87,3.61-4.24,7.21-7.09,10.79c-2.86,3.58-6.13,6.69-9.81,9.32
			C357.24,171.54,353.27,173.17,348.99,173.79z"/>
		<path class="st0" d="M379.67,173.82c-0.92,0.13-1.86,0.14-2.82,0.03c-0.96-0.12-1.7-0.52-2.23-1.22
			c-0.43-0.62-0.51-1.45-0.23-2.47c0.28-1.03,0.74-1.97,1.38-2.83c0.57-0.77,1.33-1.56,2.28-2.39c0.95-0.82,1.98-1.53,3.09-2.12
			l0.25-0.04c0.42-0.06,0.65,0.06,0.69,0.35c0.04,0.29-0.09,0.59-0.38,0.89c-1.4,0.97-2.44,2.07-3.12,3.28
			c-0.49,0.76-0.68,1.51-0.57,2.27c0.19,1.34,1.09,1.89,2.68,1.66c1.76-0.26,3.59-1.06,5.49-2.4c1.9-1.35,3.67-3.02,5.3-5.01
			c1.64-1.99,2.9-4.04,3.79-6.14c0.89-2.1,1.21-4.03,0.96-5.79c-0.17-1.17-0.96-2.15-2.35-2.93c-1.4-0.78-2.91-1.46-4.53-2.04
			c-1.62-0.58-2.85-1.06-3.68-1.45c-1.02-0.54-1.96-1.11-2.82-1.71c-0.86-0.6-1.56-1.29-2.1-2.07c-0.5,1.27-1.16,2.8-1.96,4.59
			c-0.81,1.79-1.8,3.66-2.97,5.63c-0.43,0.58-0.9,0.9-1.4,0.97c-0.5,0.07-0.78-0.1-0.85-0.52c-0.04-0.25,0.11-0.7,0.45-1.35
			c1.87-3.01,3.19-5.73,3.95-8.15c0.76-2.42,1.26-4.25,1.51-5.48c-0.02-2.48,0.78-4.95,2.39-7.41c1.61-2.46,3.68-4.71,6.21-6.74
			c2.53-2.04,5.17-3.72,7.93-5.07c2.76-1.34,5.27-2.18,7.53-2.51c2.26-0.33,4.34-0.2,6.22,0.38c1.88,0.58,2.96,1.8,3.23,3.64
			c0.15,1.01,0.01,2.14-0.4,3.4c-0.52,1.7-1.57,3.31-3.15,4.82c-0.07,0.1-0.19,0.16-0.36,0.18c-0.67,0.1-1.05-0.15-1.13-0.73
			c-0.06-0.42,0.09-0.87,0.45-1.35c0.58-0.68,1.02-1.47,1.32-2.37c0.3-0.9,0.39-1.73,0.28-2.48c-0.22-1.51-1.21-2.13-2.97-1.88
			c-1.26,0.18-2.69,0.63-4.3,1.33c-1.61,0.71-3.14,1.48-4.6,2.34c-1.46,0.85-2.65,1.61-3.59,2.26c-1.95,1.31-3.7,2.83-5.24,4.55
			c-1.55,1.72-2.96,3.79-4.23,6.2c-0.88,1.58-1.23,3-1.05,4.26c0.22,1.51,1.43,2.74,3.62,3.71c2.26,0.87,4.5,1.7,6.72,2.49
			c2.21,0.79,4.12,1.71,5.73,2.76c1.61,1.05,2.54,2.45,2.8,4.21c0.28,1.93-0.6,4.41-2.64,7.44c-1.26,1.9-3.07,3.78-5.4,5.66
			c-2.34,1.88-4.86,3.49-7.58,4.83C384.55,172.64,382.02,173.47,379.67,173.82z"/>
		<path class="st0" d="M420.92,162.68c-1.51,0.22-2.92,0.08-4.23-0.41c-1.31-0.49-2.4-1.62-3.25-3.38c-0.12-0.24-0.22-0.48-0.3-0.73
			c-0.08-0.25-0.14-0.53-0.19-0.87c-0.24-1.68-0.17-3.83,0.22-6.45c0.39-2.62,0.96-5.19,1.7-7.69c-0.41,0.75-0.87,1.65-1.4,2.71
			c-0.53,1.06-1.31,2.44-2.35,4.13c-0.29,0.38-0.64,0.61-1.06,0.67c-0.59,0.09-0.93-0.21-1.03-0.88c-0.07-0.5,0.03-0.95,0.32-1.33
			c1.78-3.08,3.36-5.84,4.77-8.27c1.4-2.43,2.41-4.46,3.03-6.09c-0.01-0.08-0.04-0.14-0.09-0.18c-0.05-0.04-0.08-0.1-0.09-0.18
			c-0.04-0.25,0.03-0.65,0.21-1.19c0.38-2.11,0.82-3.91,1.33-5.39c0.51-1.49,1.17-2.37,1.99-2.66c0.17-0.02,0.33-0.07,0.49-0.14
			c0.16-0.07,0.32-0.11,0.49-0.14c0.92-0.13,1.79-0.05,2.61,0.26c0.82,0.31,1.28,0.88,1.41,1.72c0.11,0.75-0.03,1.72-0.41,2.88
			c-0.39,1.17-0.88,2.61-1.49,4.32c-1.28,4.12-2.43,7.86-3.44,11.22c-1.01,3.36-1.45,6.05-1.33,8.09c-0.04,0.35-0.03,0.67,0.01,0.96
			c0.04,0.29,0.09,0.61,0.14,0.94c0.49,3.35,1.82,4.87,4,4.55c1.34-0.2,2.95-1.18,4.83-2.95c1.88-1.77,3.75-3.88,5.62-6.34
			c1.87-2.45,3.56-4.8,5.07-7.03c1.51-2.23,2.53-3.9,3.06-5c0.21-0.29,0.45-0.45,0.7-0.49c0.33-0.05,0.63,0.04,0.87,0.26
			c0.24,0.22,0.32,0.55,0.21,1c-0.55,1.54-1.57,3.5-3.06,5.9c-1.49,2.4-3.19,4.83-5.1,7.29c-1.91,2.46-3.8,4.6-5.68,6.41
			c-0.97,1-2.22,1.93-3.77,2.79S422.6,162.43,420.92,162.68z M428.07,115.69c-1.09,0.16-2.24,0.22-3.44,0.18
			c-1.2-0.04-1.9-0.73-2.1-2.07c-0.04-0.25,0.44-0.92,1.44-2.01c1-1.09,2.03-2.2,3.11-3.34c1.07-1.14,1.73-1.81,1.95-2.02
			c1.25-1.38,2.05-2.1,2.38-2.14c0.42-0.06,0.5,0.49,0.24,1.63c-0.26,1.15-0.33,2.15-0.21,2.98c0.06,0.42-0.09,1.17-0.44,2.25
			c-0.36,1.08-0.81,2.09-1.36,3.02C429.1,115.11,428.58,115.61,428.07,115.69z"/>
		<path class="st0" d="M444.42,205.08c-1.04-0.1-1.96-0.23-2.75-0.37c-1.71-0.61-2.98-1.39-3.8-2.33c-0.82-0.95-1.32-2.01-1.49-3.18
			c-0.28-1.93,0.07-4.1,1.04-6.51c0.98-2.41,2.34-4.94,4.09-7.59c1.73-2.82,4.02-5.76,6.87-8.83c2.85-3.07,5.86-6.05,9.03-8.95
			c3.17-2.9,5.97-5.43,8.4-7.58c2.07-6.38,3.84-12.39,5.33-18.04c1.49-5.65,2.48-9.97,2.99-12.95c-1.48,2.18-3.05,4.62-4.71,7.3
			s-2.88,4.63-3.64,5.86c-1.35,1.91-2.88,3.99-4.61,6.25c-1.72,2.26-3.6,4.25-5.62,5.95c-2.02,1.71-4.08,2.71-6.17,3.02
			c-1.34,0.2-2.82,0.01-4.45-0.57c-1.62-0.58-2.99-1.43-4.09-2.55c-1.5-1.49-2.38-3.12-2.64-4.88c-0.33-2.26,0.1-4.72,1.3-7.38
			c1.2-2.66,2.86-5.31,5-7.98c2.14-2.66,4.47-5.14,7-7.44c2.53-2.29,4.98-4.28,7.35-5.95c2.37-1.67,4.31-2.83,5.85-3.48
			c1.44-0.72,3.24-1.24,5.42-1.56c1.01-0.15,2.24-0.15,3.72-0.03c1.47,0.13,2.83,0.47,4.06,1.01c1.23,0.55,1.95,1.49,2.14,2.83
			c0.1,0.67-0.21,0.93-0.91,0.77c-0.73-0.92-1.69-1.44-2.86-1.57c-1.17-0.13-2.35-0.11-3.52,0.06c-3.27,0.48-6.78,2.1-10.52,4.87
			c-3.75,2.77-7,5.85-9.76,9.25c-0.88,0.98-2.06,2.63-3.52,4.94c-1.46,2.31-2.71,4.78-3.74,7.41c-1.03,2.63-1.4,4.95-1.1,6.96
			c0.16,1.09,0.59,2.01,1.3,2.76c0.31,0.38,0.85,0.52,1.6,0.41c1.59-0.23,3.44-1.23,5.53-2.99c2.1-1.76,4.29-3.92,6.57-6.48
			c2.28-2.56,4.48-5.25,6.59-8.08c2.11-2.83,3.98-5.43,5.6-7.81c1.62-2.37,2.81-4.17,3.58-5.4c0.11-0.44,0.36-0.78,0.75-1.01
			c0.39-0.23,0.84-0.38,1.35-0.45c1.34-0.19,2.8-0.04,4.37,0.46c1.57,0.5,2.27,1.02,2.09,1.56c-1.09,3.67-2.38,7.92-3.86,12.76
			c-1.48,4.84-3.03,9.9-4.66,15.18c1-0.74,2.62-2.31,4.84-4.68c2.22-2.38,4.64-5.19,7.24-8.44c2.61-3.25,4.99-6.57,7.15-9.96
			c0.85-1.23,1.52-1.89,2.02-1.96c0.5-0.07,0.69,0.35,0.57,1.26c-0.12,0.92-0.63,2.13-1.53,3.62c-1.11,1.79-2.68,3.96-4.7,6.52
			c-2.02,2.56-4.17,5.19-6.43,7.87c-2.26,2.68-4.37,5.09-6.33,7.21c-1.96,2.12-3.52,3.61-4.68,4.47
			c-1.79,5.91-3.55,11.49-5.26,16.75c-1.72,5.26-3.36,9.54-4.93,12.85c-1.04,2.29-2.36,4.66-3.97,7.12
			c-1.61,2.46-3.44,4.59-5.49,6.38c-2.05,1.79-4.33,2.88-6.84,3.24c-0.34,0.05-0.67,0.08-1.01,0.08
			C445.24,205.11,444.85,205.1,444.42,205.08z M442.69,202c0.55,0.26,1.29,0.15,2.2-0.32c0.91-0.48,2.04-1.41,3.38-2.8
			c2.89-3.07,5.25-6.52,7.1-10.34c1.84-3.82,3.44-7.78,4.82-11.87c1.37-4.09,2.68-8.03,3.93-11.8c-2.91,2.91-6.18,6.31-9.81,10.22
			c-3.62,3.91-6.88,7.74-9.75,11.49c-1.43,1.92-2.56,3.99-3.4,6.21c-0.83,2.22-1.13,4.16-0.88,5.84
			C440.53,200.39,441.33,201.51,442.69,202z"/>
		<path class="st0" d="M490.11,152.99c-0.59,0.08-0.8-0.19-0.63-0.81c0.18-0.54,0.47-1.76,0.88-3.66c0.41-1.9,0.87-4.17,1.38-6.81
			c0.51-2.64,1.04-5.37,1.57-8.19c0.53-2.82,1.02-5.45,1.48-7.92c0.45-2.46,0.84-4.4,1.14-5.81c0.09-0.53,0.15-1.28,0.18-2.27
			c0.03-0.99,0.25-1.92,0.68-2.8c0.43-0.87,1.31-1.41,2.65-1.61c2.51-0.37,3.86,0.04,4.03,1.21c0.06,0.42-0.05,1.16-0.32,2.23
			c-0.68,2.41-1.39,5.17-2.13,8.27c-0.75,3.11-1.39,6.02-1.94,8.75c-0.54,2.73-0.96,4.85-1.26,6.34c0.67-1.29,1.78-3.17,3.35-5.62
			c1.57-2.45,3.34-5.11,5.32-7.96c1.98-2.86,4.08-5.64,6.29-8.36c2.21-2.72,4.32-4.97,6.33-6.76c2.01-1.79,3.81-2.8,5.4-3.03
			c2.01-0.29,3.18,0.65,3.49,2.83c0.11,0.75,0.06,1.92-0.13,3.49c-0.45,2.21-1.12,4.38-2,6.52c-0.89,2.14-1.63,4.37-2.24,6.68
			c-1.02,4.17-1.48,7.49-1.37,9.96c-0.04,0.35-0.03,0.67,0.01,0.96c0.04,0.29,0.09,0.61,0.14,0.94c0.49,3.35,1.86,4.86,4.13,4.53
			c1.26-0.18,2.82-1.18,4.7-2.99c1.87-1.81,3.77-3.93,5.69-6.35c1.91-2.42,3.61-4.74,5.08-6.97c1.47-2.22,2.47-3.89,3-4.99
			c0.21-0.29,0.45-0.45,0.7-0.49c0.33-0.05,0.62,0.04,0.87,0.26c0.24,0.22,0.32,0.55,0.21,1c-0.55,1.54-1.57,3.5-3.06,5.9
			c-1.49,2.4-3.17,4.83-5.04,7.28c-1.87,2.45-3.74,4.59-5.61,6.4c-1.13,1.02-2.58,2-4.32,2.94c-1.75,0.94-3.55,1.5-5.4,1.68
			c-2.38,0.09-4.18-0.48-5.38-1.72c-1.21-1.24-1.95-2.82-2.23-4.75c-0.33-2.26-0.24-4.73,0.27-7.42c0.51-2.68,1.14-5.24,1.9-7.66
			c0.76-2.42,1.39-4.27,1.89-5.54c0.47-1.44,0.66-2.53,0.55-3.29c-0.1-0.67-0.44-0.96-1.03-0.88c-0.59,0.09-1.41,0.59-2.47,1.52
			c-1.06,0.93-2.47,2.46-4.21,4.59c-1.61,1.86-3.28,4.22-5,7.08c-1.72,2.86-3.38,5.78-4.95,8.74c-1.58,2.97-2.96,5.52-4.15,7.66
			c-1.19,2.14-2.05,3.42-2.59,3.84c-0.38,0.31-1.27,0.87-2.64,1.67C491.93,152.43,490.86,152.88,490.11,152.99z"/>
	</g>
	<g>
		<path class="st0" d="M22.2,91.17l10.16-3.81L67.29,2.89h3.81l36.2,86.37l6.35,1.91v1.91H98.41c-4.4,0-8-0.99-10.8-2.98
			c-2.79-1.99-4.87-4.59-6.22-7.81l-6.48-15.24H44.55l-8.38,20.32l9.53,3.81v1.91H22.2V91.17z M45.83,63.86h27.82L59.67,30.46
			L45.83,63.86z"/>
		<path class="st0" d="M116.19,91.17l7.62-1.91V33.38l-7.62-1.91v-1.91h11.43c5,0,8.93,1.61,11.81,4.83c1.1,1.27,2.03,2.84,2.79,4.7
			c1.18-2.2,2.58-4.11,4.19-5.72c3.81-3.81,8.55-5.72,14.23-5.72c4.74,0,9,1,12.77,2.98c3.77,1.99,6.71,4.59,8.83,7.81
			c2.12,3.22,3.18,6.6,3.18,10.16v40.65l7.62,1.91v1.91h-16.51c-7.62,0-11.43-3.81-11.43-11.43V48.62c0-5.33-0.95-9.42-2.86-12.26
			c-1.91-2.84-4.13-4.25-6.67-4.25c-3.22,0-6.1,1.69-8.64,5.08c-1.1,1.44-2.03,3.13-2.79,5.08v47l7.62,1.91v1.91h-35.56V91.17z"/>
		<path class="st0" d="M213.36,91.11c-3.9-2.58-6.99-6.39-9.27-11.43c-2.29-5.04-3.43-11.16-3.43-18.35
			c0-10.84,2.52-19.16,7.56-24.96c5.04-5.8,11.83-8.7,20.39-8.7c4.06,0,7.62,0.85,10.67,2.54c1.27,0.59,2.58,1.44,3.94,2.54V7.97
			l-7.62-1.91V4.16h16.51c7.62,0,11.43,3.81,11.43,11.43v73.67l7.62,1.91v1.91h-11.43c-5.08,0-9.02-1.57-11.81-4.7
			c-1.19-1.27-2.12-2.88-2.79-4.83c-1.1,2.12-2.5,4.02-4.19,5.72c-3.81,3.81-8.55,5.72-14.23,5.72
			C221.7,94.98,217.25,93.69,213.36,91.11z M240.29,85.45c0.93-1.27,1.91-2.96,2.92-5.08V36.55c-0.93-0.93-1.91-1.78-2.92-2.54
			c-2.29-1.69-4.49-2.54-6.6-2.54c-3.64,0-6.46,2.12-8.45,6.35c-1.99,4.24-2.98,12.07-2.98,23.5c0,10.92,0.91,18.52,2.73,22.8
			c1.82,4.28,4.08,6.41,6.8,6.41C234.91,90.54,237.75,88.84,240.29,85.45z"/>
		<path class="st0" d="M279.41,91.17l7.62-1.91V33.38l-7.62-1.91v-1.91h11.43c5,0,8.93,1.61,11.81,4.83c1.1,1.27,2.03,2.84,2.79,4.7
			c1.27-1.86,2.84-3.56,4.7-5.08c4.23-3.39,8.97-5.08,14.23-5.08c4.49,0,7.85,1.04,10.1,3.11c2.24,2.08,3.37,5.06,3.37,8.95
			c0,2.88-0.87,5.19-2.6,6.92c-1.74,1.74-4.04,2.6-6.92,2.6c-1.19,0-2.37-0.08-3.56-0.25l-1.52-0.38V32.11
			c-4.32,0-8.26,1.69-11.81,5.08c-1.69,1.69-3.05,3.39-4.06,5.08v47l7.62,1.91v1.91h-35.56V91.17z"/>
		<path class="st0" d="M352.57,86.03c-6.01-5.97-9.02-14.2-9.02-24.7c0-6.86,1.31-12.83,3.94-17.91c2.62-5.08,6.29-8.97,10.99-11.69
			c4.7-2.71,10.1-4.06,16.19-4.06c6.1,0,11.45,1.14,16.07,3.43c4.61,2.29,8.17,5.36,10.67,9.21c2.5,3.85,3.75,8.11,3.75,12.77
			c0,2.12-0.21,3.94-0.64,5.46l-0.64,2.16c-3.64,0.76-7.58,1.4-11.81,1.91c-8.89,1.27-17.87,1.91-26.93,1.91
			c0,9.82,1.35,16.83,4.06,21.02c2.71,4.19,6.43,6.29,11.18,6.29c3.3,0,6.37-0.78,9.21-2.35c2.84-1.57,5.08-3.64,6.73-6.22
			c1.65-2.58,2.48-5.23,2.48-7.94h3.18c0,3.39-1.02,6.6-3.05,9.65s-4.87,5.48-8.51,7.3c-3.64,1.82-7.83,2.73-12.57,2.73
			C367,94.98,358.58,92,352.57,86.03z M378.35,60.69c1.44-0.08,2.96-0.3,4.57-0.63c0.08-0.42,0.3-1.35,0.64-2.79
			c0.42-2.12,0.64-4.36,0.64-6.73c0-7.03-0.93-12.17-2.79-15.43c-1.86-3.26-4.11-4.89-6.73-4.89c-6.35,0-9.53,10.37-9.53,31.12
			C370.56,61.32,374.96,61.11,378.35,60.69z"/>
		<path class="st0" d="M413.41,33.38l-6.35-1.91v-1.91h14.61c4.49,0,8.04,0.93,10.67,2.79c2.62,1.86,4.78,4.53,6.48,8l13.97,29.21
			l7.24-18.54l-8.51-17.66l-6.35-1.91v-1.91h14.61c4.49,0,8.04,0.93,10.67,2.79c2.62,1.86,4.78,4.53,6.48,8l13.97,29.21l13.34-34.29
			l-9.53-3.81v-1.91h23.5v1.91l-10.16,3.81l-23.5,59.06h-3.81l-18.8-39.12l-15.5,39.12h-3.81L413.41,33.38z"/>
		<path class="st0" d="M520.74,89.9l36.2-57.16h-22.86c0,4.66-1.4,9.36-4.19,14.1c-1.1,1.78-2.46,3.43-4.06,4.95h-3.81V29.57h57.79
			v3.18L543.6,89.9h24.13c0-4.83,1.35-9.53,4.06-14.1c1.19-1.95,2.58-3.6,4.19-4.95h3.81v22.23h-59.06V89.9z"/>
	</g>
</g>
</svg>
